HIERARCHY
ROOT joint_Root
{
	OFFSET 0.0 0.0 0.0
	CHANNELS 6 Xposition Yposition Zposition Zrotation Xrotation Yrotation 
	JOINT Hips
	{
		OFFSET -17.1583 93.1646 452.98
		CHANNELS 6 Xposition Yposition Zposition Zrotation Xrotation Yrotation 
		JOINT Spine
		{
			OFFSET 15.7357 0.0 0.0
			CHANNELS 6 Xposition Yposition Zposition Zrotation Xrotation Yrotation 
			JOINT Chest
			{
				OFFSET 8.98455 -0.406207 0.0
				CHANNELS 6 Xposition Yposition Zposition Zrotation Xrotation Yrotation 
				JOINT Neck
				{
					OFFSET 16.3773 0.0 0.0
					CHANNELS 6 Xposition Yposition Zposition Zrotation Xrotation Yrotation 
					JOINT Head
					{
						OFFSET 6.45672 0.0 0.0
						CHANNELS 6 Xposition Yposition Zposition Zrotation Xrotation Yrotation 
						End Site
						{
							OFFSET 0.0 0.0 0.0
						}
					}
				}
				JOINT Shoulder_L
				{
					OFFSET 12.9942 -0.242716 4.98039
					CHANNELS 6 Xposition Yposition Zposition Zrotation Xrotation Yrotation 
					JOINT UpperArm_L
					{
						OFFSET 5.34809 0.0 0.0
						CHANNELS 6 Xposition Yposition Zposition Zrotation Xrotation Yrotation 
						JOINT LowerArm_L
						{
							OFFSET 24.3286 1.87007e-05 0.0
							CHANNELS 6 Xposition Yposition Zposition Zrotation Xrotation Yrotation 
							JOINT Hand_L
							{
								OFFSET 22.2916 0.0 0.0
								CHANNELS 6 Xposition Yposition Zposition Zrotation Xrotation Yrotation 
								End Site
								{
									OFFSET 0.0 0.0 0.0
								}
							}
						}
					}
				}
				JOINT Shoulder_R
				{
					OFFSET 12.9945 -0.242716 -4.98039
					CHANNELS 6 Xposition Yposition Zposition Zrotation Xrotation Yrotation 
					JOINT UpperArm_R
					{
						OFFSET -5.34813 0.0 0.0
						CHANNELS 6 Xposition Yposition Zposition Zrotation Xrotation Yrotation 
						JOINT LowerArm_R
						{
							OFFSET -24.3289 0.000322201 0.0
							CHANNELS 6 Xposition Yposition Zposition Zrotation Xrotation Yrotation 
							JOINT Hand_R
							{
								OFFSET -22.2915 -0.000108084 0.0
								CHANNELS 6 Xposition Yposition Zposition Zrotation Xrotation Yrotation 
								End Site
								{
									OFFSET 0.0 0.0 0.0
								}
							}
						}
					}
				}
			}
		}
		JOINT UpperLeg_L
		{
			OFFSET -2.19248 -6.46944 0.0
			CHANNELS 6 Xposition Yposition Zposition Zrotation Xrotation Yrotation 
			JOINT LowerLeg_L
			{
				OFFSET 39.0811 0.0 -1.23785e-05
				CHANNELS 6 Xposition Yposition Zposition Zrotation Xrotation Yrotation 
				JOINT Foot_L
				{
					OFFSET 40.9854 0.0 -1.26872e-05
					CHANNELS 6 Xposition Yposition Zposition Zrotation Xrotation Yrotation 
					JOINT Toes_L
					{
						OFFSET 11.7543 0.0 0.0
						CHANNELS 6 Xposition Yposition Zposition Zrotation Xrotation Yrotation 
						End Site
						{
							OFFSET 0.0 0.0 0.0
						}
					}
				}
			}
		}
		JOINT UpperLeg_R
		{
			OFFSET -2.19251 6.46944 0.0
			CHANNELS 6 Xposition Yposition Zposition Zrotation Xrotation Yrotation 
			JOINT LowerLeg_R
			{
				OFFSET -39.0811 -0.00228153 -0.0401928
				CHANNELS 6 Xposition Yposition Zposition Zrotation Xrotation Yrotation 
				JOINT Foot_R
				{
					OFFSET -40.9854 0.0 0.0
					CHANNELS 6 Xposition Yposition Zposition Zrotation Xrotation Yrotation 
					JOINT Toes_R
					{
						OFFSET -11.7543 0.0 0.0
						CHANNELS 6 Xposition Yposition Zposition Zrotation Xrotation Yrotation 
						End Site
						{
							OFFSET 0.0 0.0 0.0
						}
					}
				}
			}
		}
	}
}
MOTION
Frames:	6
Frame Time:	0.0333333
0.000000 0.000000 0.000000 0.000000 0.000000 -0.000000 -0.761938 93.307700 -0.575721 87.459200 -0.711521 -1.821340 15.735700 0.000005 -0.000001 83.690600 88.462800 -81.944900 8.984550 -0.406207 -0.000000 -4.700010 -0.527335 3.472410 16.377300 -0.000001 -0.000001 2.963510 2.268400 -2.451640 6.456720 -0.000001 -0.000000 5.534080 1.653720 -1.009230 12.994200 -0.242716 4.980390 -92.373300 7.242570 -71.802000 5.348090 -0.000007 -0.000001 -75.314200 18.338900 3.476450 24.328600 0.000019 0.000005 13.460800 24.009300 -30.467000 22.291600 -0.000001 0.000005 -4.361890 5.040660 6.442080 12.994500 -0.242716 -4.980390 88.504200 4.825840 -72.756300 -5.348130 -0.000001 -0.000004 -71.145000 25.416000 0.112651 -24.328900 0.000322 -0.000009 3.944480 8.375650 -25.337700 -22.291500 -0.000108 -0.000004 -1.729740 5.209550 2.478750 -2.192480 -6.469440 -0.000000 -177.202000 -1.357140 -3.595270 39.081100 -0.000007 -0.000012 0.139235 -0.488803 15.899800 40.985400 -0.000006 -0.000013 2.337870 8.162440 -70.044000 11.754300 -0.000000 0.000003 -0.000210 0.171083 -9.637580 -2.192510 6.469440 -0.000001 -175.925000 6.235480 -179.719000 -39.081100 -0.002282 -0.040193 0.002729 0.003783 9.179080 -40.985400 0.000008 0.000006 -3.609590 4.533730 -66.008100 -11.754300 -0.000006 -0.000006 -0.009999 0.271295 -5.551420
0.000000 0.000000 0.000000 0.000000 0.000000 -0.000000 -0.805061 93.308500 -0.631415 87.433900 -0.603114 -1.867430 15.735700 0.000005 -0.000001 83.584000 88.420800 -81.813400 8.984550 -0.406207 -0.000000 -4.616640 -0.543825 3.521640 16.377300 -0.000001 -0.000001 2.839640 2.193440 -2.272770 6.456720 -0.000001 -0.000000 5.006100 1.589860 -0.797505 12.994200 -0.242716 4.980390 -92.391600 7.279480 -71.757200 5.348090 -0.000007 -0.000001 -74.969300 17.336700 3.516200 24.328600 0.000019 0.000005 13.326600 22.701600 -31.541300 22.291600 -0.000001 0.000005 -3.950740 5.031480 6.642430 12.994500 -0.242716 -4.980390 88.519600 4.763610 -72.714300 -5.348130 -0.000001 -0.000004 -70.729800 24.379000 0.447297 -24.328900 0.000322 -0.000009 4.331140 8.452680 -27.264500 -22.291500 -0.000108 -0.000004 -2.053020 5.207120 2.540480 -2.192480 -6.469440 -0.000000 -177.140000 -1.320120 -3.749730 39.081100 -0.000007 -0.000012 0.139993 -0.488628 15.987400 40.985400 -0.000006 -0.000013 2.313070 8.213450 -69.975200 11.754300 -0.000000 0.000003 -0.000031 0.168143 -9.757000 -2.192510 6.469440 -0.000001 -175.850000 6.249510 -179.814000 -39.081100 -0.002282 -0.040193 0.002863 0.002953 9.182490 -40.985400 0.000008 0.000006 -3.625210 4.449420 -65.942000 -11.754300 -0.000006 -0.000006 -0.009596 0.268264 -5.675360
0.000000 0.000000 0.000000 0.000000 0.000000 -0.000000 -0.843105 93.325800 -0.672759 87.458600 -0.542570 -1.945570 15.735700 0.000005 -0.000001 83.814400 88.373900 -82.036100 8.984550 -0.406207 -0.000000 -4.522060 -0.540687 3.537580 16.377300 -0.000001 -0.000001 2.593810 2.108180 -2.011220 6.456720 -0.000001 -0.000000 4.359370 1.580350 -0.484972 12.994200 -0.242716 4.980390 -92.402400 7.272080 -71.662900 5.348090 -0.000007 -0.000001 -74.632900 16.203300 3.737350 24.328600 0.000019 0.000005 13.270900 21.022000 -33.325000 22.291600 -0.000001 0.000005 -3.898330 5.029330 6.689480 12.994500 -0.242716 -4.980390 88.523400 4.738920 -72.670900 -5.348130 -0.000001 -0.000004 -70.279500 22.642000 1.001680 -24.328900 0.000322 -0.000009 4.834330 8.371090 -30.160000 -22.291500 -0.000108 -0.000004 -2.544660 5.190410 2.959200 -2.192480 -6.469440 -0.000000 -177.144000 -1.269170 -3.797820 39.081100 -0.000007 -0.000012 0.139143 -0.489865 15.857100 40.985400 -0.000006 -0.000013 2.279690 8.228210 -69.939200 11.754300 -0.000000 0.000003 0.000039 0.166959 -9.805070 -2.192510 6.469440 -0.000001 -175.850000 6.307650 -179.841000 -39.081100 -0.002282 -0.040193 0.002287 0.006637 9.020320 -40.985400 0.000008 0.000006 -3.730470 4.448950 -65.818500 -11.754300 -0.000006 -0.000006 -0.009683 0.268922 -5.648440
0.000000 0.000000 0.000000 0.000000 0.000000 -0.000000 -0.878484 93.336700 -0.735168 87.472600 -0.429023 -2.010710 15.735700 0.000005 -0.000001 84.179500 88.320600 -82.379900 8.984550 -0.406207 -0.000000 -4.413790 -0.531508 3.581060 16.377300 -0.000001 -0.000001 2.367100 2.035350 -1.698640 6.456720 -0.000001 -0.000000 3.463290 1.581110 -0.108267 12.994200 -0.242716 4.980390 -92.429000 7.327730 -71.603800 5.348090 -0.000007 -0.000001 -74.230200 14.808300 4.274850 24.328600 0.000019 0.000005 13.595400 19.206100 -36.321900 22.291600 -0.000001 0.000005 -4.335780 5.011330 7.077540 12.994500 -0.242716 -4.980390 88.525700 4.677730 -72.485100 -5.348130 -0.000001 -0.000004 -69.787700 20.232000 1.780490 -24.328900 0.000322 -0.000009 5.516120 8.155730 -34.248500 -22.291500 -0.000108 -0.000004 -3.163430 5.165220 3.577640 -2.192480 -6.469440 -0.000000 -177.129000 -1.154440 -3.890360 39.081100 -0.000007 -0.000012 0.138225 -0.488137 15.810700 40.985400 -0.000006 -0.000013 2.240740 8.223200 -69.903400 11.754300 -0.000000 0.000003 -0.000158 0.170244 -9.671650 -2.192510 6.469440 -0.000001 -175.826000 6.454490 -179.918000 -39.081100 -0.002282 -0.040193 0.002510 0.005265 8.965380 -40.985400 0.000008 0.000006 -3.737000 4.468190 -65.804800 -11.754300 -0.000006 -0.000006 -0.010059 0.271746 -5.532950
0.000000 0.000000 0.000000 0.000000 0.000000 -0.000000 -0.905813 93.355200 -0.804539 87.485400 -0.339190 -2.143200 15.735700 0.000005 -0.000001 84.237000 88.271200 -82.408100 8.984550 -0.406207 -0.000000 -4.314760 -0.539616 3.639620 16.377300 -0.000001 -0.000001 2.056350 1.964100 -1.291090 6.456720 -0.000001 -0.000000 2.540460 1.729420 0.366128 12.994200 -0.242716 4.980390 -92.455500 7.362990 -71.498700 5.348090 -0.000007 -0.000001 -73.913700 12.724200 5.017530 24.328600 0.000019 0.000005 14.505200 17.592400 -40.563000 22.291600 -0.000001 0.000005 -4.564160 5.003210 7.251310 12.994500 -0.242716 -4.980390 88.534200 4.595840 -72.289200 -5.348130 -0.000001 -0.000004 -69.379900 16.575600 2.728580 -24.328900 0.000322 -0.000009 6.678790 8.159080 -39.528000 -22.291500 -0.000108 -0.000004 -4.217450 5.132290 4.365130 -2.192480 -6.469440 -0.000000 -177.122000 -1.025390 -4.033910 39.081100 -0.000007 -0.000012 0.135502 -0.482446 15.688400 40.985400 -0.000006 -0.000013 2.197020 8.183740 -69.735400 11.754300 -0.000000 0.000003 0.000143 0.165183 -9.877210 -2.192510 6.469440 -0.000001 -175.809000 6.507960 179.972000 -39.081100 -0.002282 -0.040193 0.002278 0.006875 8.790130 -40.985400 0.000008 0.000006 -3.861060 4.482140 -65.560300 -11.754300 -0.000006 -0.000006 -0.009599 0.268286 -5.674430
0.000000 0.000000 0.000000 0.000000 0.000000 -0.000000 -0.948253 93.372300 -0.893488 87.486500 -0.184159 -2.194570 15.735700 0.000005 -0.000001 83.578800 88.203700 -81.708000 8.984550 -0.406207 -0.000000 -4.183610 -0.596455 3.721890 16.377300 -0.000001 -0.000001 1.816810 1.902490 -0.825120 6.456720 -0.000001 -0.000000 1.479280 1.909130 1.017060 12.994200 -0.242716 4.980390 -92.485500 7.377210 -71.321500 5.348090 -0.000007 -0.000001 -73.672800 9.834510 5.979200 24.328600 0.000019 0.000005 15.807800 15.820500 -46.082200 22.291600 -0.000001 0.000005 -4.858070 4.995650 7.411520 12.994500 -0.242716 -4.980390 88.516300 4.578570 -72.023300 -5.348130 -0.000001 -0.000004 -68.886800 12.429000 3.805450 -24.328900 0.000322 -0.000009 7.999970 7.818710 -45.935000 -22.291500 -0.000108 -0.000004 -4.711190 5.089570 5.351390 -2.192480 -6.469440 -0.000000 -177.079000 -0.878493 -4.125970 39.081100 -0.000007 -0.000012 0.134456 -0.480532 15.632100 40.985400 -0.000006 -0.000013 2.155990 8.238670 -69.721600 11.754300 -0.000000 0.000003 -0.000052 0.168491 -9.742850 -2.192510 6.469440 -0.000001 -175.767000 6.609100 179.940000 -39.081100 -0.002282 -0.040193 0.002103 0.008153 8.637880 -40.985400 0.000008 0.000006 -3.918820 4.439580 -65.467300 -11.754300 -0.000006 -0.000006 -0.009689 0.268964 -5.646720
